<?xml version="1.0" standalone="no"?>
<!DOCTYPE svg PUBLIC "-//W3C//DTD SVG 20010904//EN"
 "http://www.w3.org/TR/2001/REC-SVG-20010904/DTD/svg10.dtd">
<svg version="1.0" xmlns="http://www.w3.org/2000/svg"
 width="500.000000pt" height="500.000000pt" viewBox="0 0 500.000000 500.000000"
 preserveAspectRatio="xMidYMid meet">
<metadata>
Created by potrace 1.14, written by Peter Selinger 2001-2017
</metadata>
<g transform="translate(0.000000,500.000000) scale(0.100000,-0.100000)"
fill="#000000" stroke="none">
<path d="M0 2500 l0 -2500 2500 0 2500 0 0 2500 0 2500 -2500 0 -2500 0 0
-2500z m2973 463 c191 -366 346 -667 345 -668 -2 -1 -117 24 -257 57 l-253 59
-104 -108 -103 -108 -1 263 0 262 100 0 c61 0 100 4 100 10 0 12 -273 536
-293 564 -11 15 -32 -19 -164 -271 -83 -158 -149 -291 -146 -295 2 -5 47 -8
99 -8 l94 0 0 -257 0 -258 -103 103 -103 102 -254 -59 c-140 -33 -255 -58
-256 -58 0 1 157 302 349 670 l349 667 127 0 126 -1 348 -666z m-87 -948 c4
-15 1 -32 -6 -40 -18 -21 -57 -19 -70 5 -16 30 4 60 40 60 23 0 31 -5 36 -25z
m-1310 -155 c75 -186 72 -170 26 -170 -34 0 -41 4 -46 25 -6 23 -10 25 -71 25
-61 0 -66 -2 -75 -25 -8 -20 -16 -25 -45 -25 -19 0 -35 3 -35 7 0 4 26 74 58
155 l57 149 39 -3 38 -3 54 -135z m1034 101 c0 -26 4 -30 33 -33 27 -2 33 -8
35 -30 3 -26 1 -28 -32 -28 l-36 0 0 -48 c0 -53 12 -72 47 -72 19 0 23 -5 23
-30 0 -28 -3 -30 -35 -30 -76 0 -105 34 -105 125 0 48 -2 55 -20 55 -16 0 -20
7 -20 30 0 25 4 30 24 30 18 0 25 7 30 30 4 24 11 30 31 30 21 0 25 -5 25 -29z
m-780 -119 c5 -88 16 -107 55 -96 30 9 30 9 35 97 l5 82 33 3 32 3 0 -120 0
-121 -24 0 c-13 0 -26 5 -28 10 -2 7 -16 5 -37 -6 -28 -14 -39 -15 -72 -5 -55
16 -69 49 -69 156 l0 86 33 -3 32 -3 5 -83z m522 49 c15 -17 28 -38 28 -46 0
-22 -54 -19 -75 5 -53 59 -139 -20 -91 -85 19 -26 76 -25 94 3 20 30 72 31 72
1 0 -29 -52 -75 -93 -83 -76 -14 -157 46 -157 116 0 81 59 132 144 125 40 -4
55 -10 78 -36z m528 -81 l0 -120 -35 0 -35 0 0 113 c0 63 3 117 7 120 3 4 19
7 35 7 l28 0 0 -120z m336 104 c46 -22 68 -65 61 -121 -6 -54 -36 -89 -89
-103 -115 -31 -206 77 -153 180 29 57 112 77 181 44z m250 1 c5 -13 8 -13 27
0 37 26 94 19 128 -14 28 -28 29 -33 29 -120 l0 -91 -35 0 -35 0 0 78 c0 82
-9 102 -45 102 -36 0 -45 -20 -45 -102 l0 -78 -35 0 -35 0 0 120 c0 114 1 120
20 120 11 0 23 -7 26 -15z m-1756 -505 l0 -60 60 0 60 0 0 60 0 60 35 0 35 0
0 -155 0 -155 -35 0 -34 0 -3 63 -3 62 -57 3 -58 3 0 -66 0 -65 -40 0 -40 0 0
155 0 155 40 0 40 0 0 -60z m526 -26 c46 -22 68 -65 61 -121 -6 -54 -36 -89
-89 -103 -115 -31 -206 77 -153 180 29 57 112 77 181 44z m264 -64 c0 -73 2
-81 24 -95 49 -33 76 6 76 111 l0 65 33 -3 32 -3 3 -117 3 -118 -31 0 c-16 0
-30 4 -30 9 0 6 -16 3 -36 -5 -45 -19 -84 -11 -115 22 -20 22 -24 38 -28 105
-4 97 0 109 39 109 l30 0 0 -80z m463 69 c25 -11 51 -52 40 -63 -13 -12 -61
-5 -67 10 -4 10 -15 14 -33 12 -45 -5 -33 -29 24 -48 67 -22 83 -36 83 -71 0
-60 -77 -94 -148 -67 -35 13 -66 53 -56 70 9 14 62 9 68 -7 3 -9 18 -15 36
-15 51 0 34 30 -29 51 -62 20 -72 31 -69 79 2 25 10 38 28 47 31 16 91 17 123
2z m364 -9 c35 -21 47 -39 58 -87 l7 -33 -96 0 c-53 0 -96 -3 -96 -7 0 -32 73
-56 97 -32 6 6 28 9 49 7 l39 -3 -32 -31 c-60 -58 -156 -51 -200 15 -76 113
56 243 174 171z"/>
<path d="M1462 1859 l-20 -54 24 -3 c13 -2 32 -2 42 0 17 3 17 6 -3 57 l-22
54 -21 -54z"/>
<path d="M3106 1854 c-20 -20 -21 -78 0 -94 23 -20 75 -16 90 5 20 26 17 69
-4 88 -23 21 -66 22 -86 1z"/>
<path d="M2126 1324 c-20 -20 -21 -78 0 -94 23 -20 75 -16 90 5 20 26 17 69
-4 88 -23 21 -66 22 -86 1z"/>
<path d="M3231 1337 c-47 -24 -37 -37 29 -37 58 0 60 1 50 20 -6 11 -15 20
-20 20 -4 0 -14 2 -22 5 -7 3 -24 -1 -37 -8z"/>
</g>
</svg>
